<svg width="20" height="20" viewBox="0 0 20 20" fill="none" xmlns="http://www.w3.org/2000/svg">
<path d="M4.72494 17.3975C4.63081 17.4605 4.52134 17.4967 4.40822 17.5023C4.29511 17.5078 4.18261 17.4826 4.08274 17.4292C3.98286 17.3758 3.89938 17.2962 3.84121 17.1991C3.78303 17.1019 3.75235 16.9908 3.75244 16.8775V5.0125C3.75244 4.35032 4.01515 3.7152 4.48291 3.2465C4.95067 2.7778 5.58527 2.51382 6.24744 2.5125L13.7474 2.49875C14.0757 2.49809 14.401 2.56211 14.7045 2.68714C15.0081 2.81217 15.2841 2.99576 15.5167 3.22745C15.7493 3.45913 15.934 3.73436 16.0602 4.03742C16.1865 4.34048 16.2518 4.66545 16.2524 4.99375V16.8763C16.2525 16.9895 16.2219 17.1006 16.1637 17.1978C16.1055 17.295 16.022 17.3745 15.9221 17.4279C15.8223 17.4813 15.7098 17.5066 15.5967 17.501C15.4835 17.4954 15.3741 17.4592 15.2799 17.3962L10.0024 13.8713L4.72494 17.3962V17.3975ZM15.0024 5L14.9937 4.8525C14.9575 4.54823 14.8109 4.26785 14.5816 4.0646C14.3523 3.86135 14.0563 3.74939 13.7499 3.75L6.24994 3.7625C5.91885 3.76316 5.60155 3.89515 5.36767 4.1295C5.13379 4.36385 5.00244 4.68141 5.00244 5.0125V15.7088L9.65494 12.6013C9.75778 12.5325 9.87872 12.4957 10.0024 12.4957C10.1262 12.4957 10.2471 12.5325 10.3499 12.6013L15.0024 15.7088V5Z" fill="#707070"/>
</svg>
