<svg width="20" height="20" viewBox="0 0 20 20" fill="none" xmlns="http://www.w3.org/2000/svg">
<path d="M9.42626 4.935C8.66644 4.1716 7.63456 3.74117 6.55749 3.73836C5.48041 3.73555 4.4463 4.16057 3.68251 4.92C2.92308 5.68379 2.49806 6.7179 2.50087 7.79498C2.50368 8.87206 2.9341 9.90393 3.69751 10.6637L9.58126 16.5487C9.69846 16.6659 9.8574 16.7317 10.0231 16.7317C10.1889 16.7317 10.3478 16.6659 10.465 16.5487L16.3188 10.6987C17.0778 9.93501 17.5026 8.90117 17.4998 7.82439C17.497 6.74762 17.0668 5.71601 16.3038 4.95625C15.9272 4.57742 15.4797 4.27651 14.9868 4.07072C14.494 3.86493 13.9654 3.75829 13.4312 3.7569C12.8971 3.7555 12.368 3.85938 11.874 4.0626C11.3801 4.26582 10.931 4.56439 10.5525 4.94125L9.99376 5.50125L9.42626 4.935Z" fill="#707070"/>
</svg>
